<svg xmlns="http://www.w3.org/2000/svg" viewBox="0 0 480 300" fill="none" role="img" aria-label="Spleißen">
  <defs>
    <linearGradient id="b" x1="0" y1="0" x2="1" y2="1"><stop offset="0" stop-color="#0c1426"/><stop offset="1" stop-color="#0a0f1c"/></linearGradient>
    <linearGradient id="a" x1="0" y1="0" x2="1" y2="1"><stop offset="0" stop-color="#3b82f6"/><stop offset="1" stop-color="#22d3ee"/></linearGradient>
    <radialGradient id="g" cx="0.5" cy="0.1" r="0.8"><stop offset="0" stop-color="#3b82f6" stop-opacity="0.22"/><stop offset="1" stop-color="#3b82f6" stop-opacity="0"/></radialGradient>
    <pattern id="p" width="28" height="28" patternUnits="userSpaceOnUse"><path d="M28 0H0V28" stroke="#ffffff" stroke-opacity="0.05" stroke-width="1"/></pattern>
  </defs>
  <rect width="480" height="300" fill="url(#b)"/><rect width="480" height="300" fill="url(#p)"/><rect width="480" height="300" fill="url(#g)"/>

  <!-- linke Fasern -->
  <g fill="none" stroke-width="3" stroke-linecap="round">
    <path d="M60 110 C140 110 170 150 224 150" stroke="#3b82f6"/>
    <path d="M60 150 C140 150 170 150 224 150" stroke="#60a5fa"/>
    <path d="M60 190 C140 190 170 150 224 150" stroke="#22d3ee"/>
    <!-- rechte Fasern -->
    <path d="M256 150 C310 150 340 110 420 110" stroke="#3b82f6"/>
    <path d="M256 150 C310 150 340 150 420 150" stroke="#60a5fa"/>
    <path d="M256 150 C310 150 340 190 420 190" stroke="#22d3ee"/>
  </g>

  <!-- Spleiß-Muffe -->
  <rect x="216" y="132" width="48" height="36" rx="8" fill="#0e1a2e" stroke="url(#a)" stroke-width="3"/>
  <circle cx="240" cy="150" r="6" fill="#22d3ee"/>
</svg>
