<svg xmlns="http://www.w3.org/2000/svg" viewBox="0 0 480 300" fill="none" role="img" aria-label="FTTx">
  <defs>
    <linearGradient id="b" x1="0" y1="0" x2="1" y2="1"><stop offset="0" stop-color="#0c1426"/><stop offset="1" stop-color="#0a0f1c"/></linearGradient>
    <linearGradient id="a" x1="0" y1="0" x2="1" y2="1"><stop offset="0" stop-color="#3b82f6"/><stop offset="1" stop-color="#22d3ee"/></linearGradient>
    <radialGradient id="g" cx="0.5" cy="0.1" r="0.8"><stop offset="0" stop-color="#3b82f6" stop-opacity="0.22"/><stop offset="1" stop-color="#3b82f6" stop-opacity="0"/></radialGradient>
    <pattern id="p" width="28" height="28" patternUnits="userSpaceOnUse"><path d="M28 0H0V28" stroke="#ffffff" stroke-opacity="0.05" stroke-width="1"/></pattern>
  </defs>
  <rect width="480" height="300" fill="url(#b)"/><rect width="480" height="300" fill="url(#p)"/><rect width="480" height="300" fill="url(#g)"/>

  <!-- Trunk -->
  <path d="M60 200 H420" stroke="url(#a)" stroke-width="4" stroke-linecap="round"/>
  <!-- Drops -->
  <g stroke="url(#a)" stroke-opacity="0.55" stroke-width="2.5"><path d="M150 200 V150"/><path d="M260 200 V150"/><path d="M370 200 V150"/></g>

  <circle cx="60" cy="200" r="14" fill="url(#a)"/>
  <g fill="#0e1a2e" stroke="url(#a)" stroke-width="2.5"><rect x="138" y="190" width="20" height="20" rx="5"/><rect x="248" y="190" width="20" height="20" rx="5"/><rect x="358" y="190" width="20" height="20" rx="5"/></g>

  <!-- Häuser -->
  <g fill="#0e1a2e" stroke="url(#a)" stroke-width="2.5" stroke-linejoin="round">
    <path d="M130 150 v-22 h40 v22 M124 128 l26 -18 l26 18"/>
    <path d="M240 150 v-22 h40 v22 M234 128 l26 -18 l26 18"/>
    <path d="M350 150 v-22 h40 v22 M344 128 l26 -18 l26 18"/>
  </g>
  <g fill="#22d3ee"><circle cx="150" cy="138" r="3.5"/><circle cx="260" cy="138" r="3.5"/><circle cx="370" cy="138" r="3.5"/></g>
</svg>
