<svg xmlns="http://www.w3.org/2000/svg" viewBox="0 0 480 300" fill="none" role="img" aria-label="Automatisierung">
  <defs>
    <linearGradient id="b" x1="0" y1="0" x2="1" y2="1"><stop offset="0" stop-color="#0c1426"/><stop offset="1" stop-color="#0a0f1c"/></linearGradient>
    <linearGradient id="a" x1="0" y1="0" x2="1" y2="1"><stop offset="0" stop-color="#22d3ee"/><stop offset="1" stop-color="#2dd4bf"/></linearGradient>
    <radialGradient id="g" cx="0.5" cy="0.1" r="0.8"><stop offset="0" stop-color="#22d3ee" stop-opacity="0.22"/><stop offset="1" stop-color="#22d3ee" stop-opacity="0"/></radialGradient>
    <pattern id="p" width="28" height="28" patternUnits="userSpaceOnUse"><path d="M28 0H0V28" stroke="#ffffff" stroke-opacity="0.05" stroke-width="1"/></pattern>
    <marker id="ah" markerWidth="9" markerHeight="9" refX="5" refY="4.5" orient="auto"><path d="M1 1 L7 4.5 L1 8" stroke="#22d3ee" stroke-width="1.8" fill="none" stroke-linecap="round" stroke-linejoin="round"/></marker>
  </defs>
  <rect width="480" height="300" fill="url(#b)"/><rect width="480" height="300" fill="url(#p)"/><rect width="480" height="300" fill="url(#g)"/>

  <!-- Kreislauf-Pfeile (Automatisierung) -->
  <g stroke="url(#a)" stroke-width="4" fill="none" stroke-linecap="round">
    <path d="M240 96 A54 54 0 0 1 294 150" marker-end="url(#ah)"/>
    <path d="M240 204 A54 54 0 0 1 186 150" marker-end="url(#ah)"/>
  </g>
  <circle cx="240" cy="150" r="70" stroke="#22d3ee" stroke-opacity="0.18" stroke-width="2" fill="none"/>

  <!-- Blitz -->
  <path d="M250 112 L214 158 H242 L230 188 L270 138 H242 Z" fill="url(#a)"/>
</svg>
