<svg xmlns="http://www.w3.org/2000/svg" viewBox="0 0 480 300" fill="none" role="img" aria-label="Workflow">
  <defs>
    <linearGradient id="b" x1="0" y1="0" x2="1" y2="1"><stop offset="0" stop-color="#0c1426"/><stop offset="1" stop-color="#0a0f1c"/></linearGradient>
    <linearGradient id="a" x1="0" y1="0" x2="1" y2="1"><stop offset="0" stop-color="#22d3ee"/><stop offset="1" stop-color="#2dd4bf"/></linearGradient>
    <radialGradient id="g" cx="0.5" cy="0.1" r="0.8"><stop offset="0" stop-color="#22d3ee" stop-opacity="0.22"/><stop offset="1" stop-color="#22d3ee" stop-opacity="0"/></radialGradient>
    <pattern id="p" width="28" height="28" patternUnits="userSpaceOnUse"><path d="M28 0H0V28" stroke="#ffffff" stroke-opacity="0.05" stroke-width="1"/></pattern>
    <marker id="ah" markerWidth="9" markerHeight="9" refX="6" refY="4.5" orient="auto"><path d="M1 1 L7 4.5 L1 8" stroke="#22d3ee" stroke-width="1.6" fill="none" stroke-linecap="round" stroke-linejoin="round"/></marker>
  </defs>
  <rect width="480" height="300" fill="url(#b)"/><rect width="480" height="300" fill="url(#p)"/><rect width="480" height="300" fill="url(#g)"/>

  <g stroke="#22d3ee" stroke-opacity="0.55" stroke-width="2.5" fill="none">
    <path d="M122 150 L168 96" marker-end="url(#ah)"/>
    <path d="M122 150 L168 204" marker-end="url(#ah)"/>
    <path d="M252 96 L300 150" marker-end="url(#ah)"/>
    <path d="M252 204 L300 150" marker-end="url(#ah)"/>
  </g>

  <g fill="#0e1a2e" stroke="url(#a)" stroke-width="2.5">
    <rect x="54" y="126" width="64" height="48" rx="10"/>
    <rect x="172" y="72" width="80" height="48" rx="10"/>
    <rect x="172" y="180" width="80" height="48" rx="10"/>
    <rect x="304" y="126" width="64" height="48" rx="10"/>
  </g>
  <g fill="#22d3ee" fill-opacity="0.85">
    <rect x="66" y="142" width="40" height="6" rx="3"/>
    <rect x="186" y="88" width="52" height="6" rx="3"/>
    <rect x="186" y="196" width="52" height="6" rx="3"/>
    <rect x="316" y="142" width="40" height="6" rx="3"/>
  </g>
  <g fill="#2a3a52">
    <rect x="66" y="154" width="28" height="5" rx="2.5"/>
    <rect x="186" y="100" width="36" height="5" rx="2.5"/>
    <rect x="186" y="208" width="36" height="5" rx="2.5"/>
    <rect x="316" y="154" width="28" height="5" rx="2.5"/>
  </g>
</svg>
